<svg width="37" height="29" viewBox="0 0 37 29" fill="none" xmlns="http://www.w3.org/2000/svg">
<path fill-rule="evenodd" clip-rule="evenodd" d="M18.5492 0.587158C24.3649 0.587158 29.0794 5.41249 29.0794 11.3647C29.0794 12.701 28.8419 13.9807 28.4075 15.1614L28.4073 28.5629H22.1339C19.8147 28.5048 17.6112 28.5629 15.025 28.5629L14.9645 28.5616V28.5629H8.46706V28.5563C3.98283 28.3758 0.401367 24.5977 0.401367 19.9638C0.401367 15.4853 3.74651 11.8065 8.01904 11.4017V11.3647C8.01904 5.41249 12.7336 0.587158 18.5492 0.587158Z" fill="url(#paint0_linear_2010_173)"/>
<path d="M28.0721 11.042L27.9322 11.0433C23.2886 11.1203 19.5459 14.9973 19.5459 19.769V28.4955C20.6781 28.4978 21.0458 28.468 22.1316 28.4952L28.0721 28.4955L28.2121 28.4942C32.8558 28.4171 36.5982 24.5405 36.5982 19.7687C36.5982 14.9488 32.7807 11.042 28.0721 11.042Z" fill="url(#paint1_linear_2010_173)"/>
<path d="M22.2988 22.0873C21.6631 21.7081 20.8566 22.1661 20.8566 22.9062V27.8839C20.8566 28.4105 20.4297 28.8375 19.903 28.8375H17.1376C16.6109 28.8375 16.184 28.4105 16.184 27.8839V22.9928C16.184 22.2341 15.3411 21.7793 14.707 22.1956L14.0951 22.5974C13.0677 23.2719 11.6952 23.049 10.9341 22.084C10.1403 21.0775 10.2909 19.6222 11.274 18.7996L16.2602 14.6269C17.6802 13.4386 19.7486 13.4418 21.165 14.6345L26.1018 18.7915C27.0877 19.6217 27.2439 21.0815 26.456 22.1015C25.712 23.0648 24.3656 23.3204 23.3203 22.6968L22.2988 22.0873Z" fill="white"/>
<defs>
<linearGradient id="paint0_linear_2010_173" x1="33.2018" y1="34.8087" x2="18.2101" y2="-3.41793" gradientUnits="userSpaceOnUse">
<stop stop-color="#A0A6C6"/>
<stop offset="0.0001" stop-color="#576A7C"/>
<stop offset="1" stop-color="#EBEEF6"/>
</linearGradient>
<linearGradient id="paint1_linear_2010_173" x1="33.729" y1="6.86469" x2="12.0032" y2="34.6347" gradientUnits="userSpaceOnUse">
<stop stop-color="#E3E5EF"/>
<stop offset="1" stop-color="#73809A"/>
</linearGradient>
</defs>
</svg>
